<svg width="96" height="104" viewBox="0 0 96 104" fill="none" xmlns="http://www.w3.org/2000/svg">
<g filter="url(#filter0_d_3616_424)">
<path fill-rule="evenodd" clip-rule="evenodd" d="M48.4665 17C63.0888 17 74.9426 28.8645 74.9426 43.5C74.9426 58.1354 63.0888 70 48.4665 70C33.844 70 21.9902 58.1354 21.9902 43.5C21.9902 28.8645 33.844 17 48.4665 17Z" fill="#FF4361"/>
<path fill-rule="evenodd" clip-rule="evenodd" d="M48.4665 17C63.0888 17 74.9426 28.8645 74.9426 43.5C74.9426 58.1354 63.0888 70 48.4665 70C33.844 70 21.9902 58.1354 21.9902 43.5C21.9902 28.8645 33.844 17 48.4665 17Z" fill="url(#paint0_linear_3616_424)"/>
</g>
<path fill-rule="evenodd" clip-rule="evenodd" d="M42.9712 1H52.9621C69.5158 1 82.9352 14.4312 82.9352 31V41C82.9352 57.5683 69.5158 70.9999 52.9621 70.9999H42.9712C26.4175 70.9999 12.998 57.5683 12.998 41V31C12.998 14.4312 26.4175 1 42.9712 1Z" fill="#FF4361"/>
<path fill-rule="evenodd" clip-rule="evenodd" d="M42.9732 1H52.9641C69.5178 1 82.9372 14.4312 82.9372 31V41C82.9372 57.5683 69.5178 70.9999 52.9641 70.9999H42.9732C26.4195 70.9999 13 57.5683 13 41V31C13 14.4312 26.4195 1 42.9732 1Z" fill="url(#paint1_linear_3616_424)"/>
<path d="M58.4366 28.9393L56.2637 31.1122L51.8887 26.7372L54.0616 24.5643C54.6741 23.9518 55.4616 23.6602 56.2491 23.6602C57.0366 23.6602 57.8241 23.9518 58.4366 24.5643C59.647 25.7747 59.647 27.7289 58.4366 28.9393Z" fill="#FEFAFC"/>
<path d="M55.2447 32.1484L39.4801 47.8984C38.2697 49.1089 36.3155 49.1089 35.1051 47.8984C33.8947 46.688 33.8947 44.7339 35.1051 43.5234L50.8697 27.7734L55.2447 32.1484Z" fill="#FEFAFC"/>
<path d="M44.5099 23.1023L45.1078 21.0752C45.1661 20.8856 45.1078 20.6815 44.9765 20.5356C44.8453 20.3898 44.6119 20.3315 44.4224 20.3898L42.3953 20.9877L40.3682 20.3898C40.1786 20.3315 39.9744 20.3898 39.8286 20.521C39.6828 20.6669 39.639 20.871 39.6974 21.0606L40.2807 23.1023L39.6828 25.1294C39.6244 25.319 39.6828 25.5231 39.814 25.669C39.9599 25.8148 40.164 25.8585 40.3536 25.8002L42.3953 25.2169L44.4224 25.8148C44.4807 25.8294 44.5244 25.844 44.5828 25.844C44.7286 25.844 44.8599 25.7856 44.9765 25.6835C45.1224 25.5377 45.1661 25.3335 45.1078 25.144L44.5099 23.1023Z" fill="#FEFAFC"/>
<path d="M38.6778 31.8562L39.2757 29.8291C39.3341 29.6395 39.2757 29.4354 39.1445 29.2895C38.9987 29.1437 38.7945 29.1 38.6049 29.1583L36.5632 29.7416L34.5362 29.1437C34.3466 29.0854 34.1424 29.1437 33.9966 29.275C33.8507 29.4208 33.807 29.625 33.8653 29.8145L34.4487 31.8562L33.8507 33.8833C33.7924 34.0729 33.8507 34.277 33.982 34.4229C34.1278 34.5687 34.332 34.6125 34.5216 34.5541L36.5487 33.9562L38.5757 34.5541C38.6195 34.5687 38.6778 34.5687 38.7362 34.5687C38.882 34.5687 39.0132 34.5104 39.1299 34.4083C39.2757 34.2625 39.3195 34.0583 39.2612 33.8687L38.6778 31.8562Z" fill="#FEFAFC"/>
<path d="M60.5514 39.1487L61.1494 37.1216C61.2077 36.932 61.1494 36.7279 61.0181 36.582C60.8723 36.4362 60.6681 36.3924 60.4785 36.4508L58.4514 37.0487L56.4244 36.4508C56.2348 36.3924 56.0306 36.4508 55.8848 36.582C55.7389 36.7279 55.6952 36.932 55.7535 37.1216L56.3514 39.1487L55.7535 41.1758C55.6952 41.3654 55.7535 41.5695 55.8848 41.7154C56.0306 41.8612 56.2348 41.9049 56.4244 41.8466L58.4514 41.2487L60.4785 41.8466C60.5223 41.8612 60.5806 41.8612 60.6389 41.8612C60.7848 41.8612 60.916 41.8029 61.0327 41.7008C61.1785 41.5549 61.2223 41.3508 61.1639 41.1612L60.5514 39.1487Z" fill="#FEFAFC"/>
<defs>
<filter id="filter0_d_3616_424" x="0.990234" y="9" width="94.9531" height="95" filterUnits="userSpaceOnUse" color-interpolation-filters="sRGB">
<feFlood flood-opacity="0" result="BackgroundImageFix"/>
<feColorMatrix in="SourceAlpha" type="matrix" values="0 0 0 0 0 0 0 0 0 0 0 0 0 0 0 0 0 0 127 0" result="hardAlpha"/>
<feOffset dy="13"/>
<feGaussianBlur stdDeviation="10.5"/>
<feColorMatrix type="matrix" values="0 0 0 0 0.196078 0 0 0 0 0.454902 0 0 0 0 0.360784 0 0 0 0.3 0"/>
<feBlend mode="normal" in2="BackgroundImageFix" result="effect1_dropShadow_3616_424"/>
<feBlend mode="normal" in="SourceGraphic" in2="effect1_dropShadow_3616_424" result="shape"/>
</filter>
<linearGradient id="paint0_linear_3616_424" x1="52.5979" y1="102.635" x2="107.605" y2="39.4139" gradientUnits="userSpaceOnUse">
<stop stop-color="#2D6A54"/>
<stop offset="1" stop-color="#469578"/>
</linearGradient>
<linearGradient id="paint1_linear_3616_424" x1="53.3771" y1="113.413" x2="125.386" y2="30.6508" gradientUnits="userSpaceOnUse">
<stop stop-color="#2D6B55"/>
<stop offset="1" stop-color="#469579"/>
</linearGradient>
</defs>
</svg>
