<svg width="57" height="57" viewBox="0 0 57 57" fill="none" xmlns="http://www.w3.org/2000/svg">
<path fill-rule="evenodd" clip-rule="evenodd" d="M24.75 1H32.6667C45.7835 1 56.4167 11.633 56.4167 24.75V32.6667C56.4167 45.7832 45.7835 56.4166 32.6667 56.4166H24.75C11.6333 56.4166 1 45.7832 1 32.6667V24.75C1 11.633 11.6333 1 24.75 1Z" fill="url(#paint0_linear_3616_314)"/>
<path d="M21.4694 24.8529C23.3391 24.8529 24.8548 23.3372 24.8548 21.4674C24.8548 19.5977 23.3391 18.082 21.4694 18.082C19.5997 18.082 18.084 19.5977 18.084 21.4674C18.084 23.3372 19.5997 24.8529 21.4694 24.8529Z" fill="#FEFAFC"/>
<path d="M21.209 38.9141C22.9349 38.9141 24.334 37.515 24.334 35.7891C24.334 34.0632 22.9349 32.6641 21.209 32.6641C19.4831 32.6641 18.084 34.0632 18.084 35.7891C18.084 37.515 19.4831 38.9141 21.209 38.9141Z" fill="#FEFAFC"/>
<path d="M35.791 38.9141C37.5169 38.9141 38.916 37.515 38.916 35.7891C38.916 34.0632 37.5169 32.6641 35.791 32.6641C34.0651 32.6641 32.666 34.0632 32.666 35.7891C32.666 37.515 34.0651 38.9141 35.791 38.9141Z" fill="#FEFAFC"/>
<path d="M35.9674 32.6432C34.957 29.7474 32.2279 27.7995 29.1549 27.7995C29.1445 27.7995 29.1341 27.7995 29.1237 27.7995L25.4466 27.8099C23.8633 27.8307 22.4466 26.7578 22.0195 25.2161V23.2995C22.0195 22.862 21.6654 22.5078 21.2174 22.5078C20.7695 22.5078 20.4258 22.862 20.4258 23.2995V34.987C20.4258 35.4245 20.7799 35.7786 21.2174 35.7786C21.6549 35.7786 22.0195 35.4245 22.0195 34.987V28.0911C22.9362 28.9036 24.1341 29.4036 25.4362 29.4036C25.4466 29.4036 25.4466 29.4036 25.457 29.4036L29.1341 29.3932C29.1445 29.3932 29.1445 29.3932 29.1549 29.3932C31.5404 29.3932 33.6758 30.9036 34.457 33.1641C34.582 33.4974 34.8841 33.7057 35.2174 33.7057C35.3008 33.7057 35.3945 33.6953 35.4779 33.6641C35.8945 33.5182 36.1133 33.0599 35.9674 32.6432Z" fill="#FEFAFC"/>
<defs>
<linearGradient id="paint0_linear_3616_314" x1="32.9939" y1="89.9939" x2="89.9939" y2="24.4229" gradientUnits="userSpaceOnUse">
<stop stop-color="#E79F3E"/>
<stop offset="1" stop-color="#FACF95"/>
</linearGradient>
</defs>
</svg>
