<svg width="95" height="104" viewBox="0 0 95 104" fill="none" xmlns="http://www.w3.org/2000/svg">
<g filter="url(#filter0_d_3616_317)">
<path fill-rule="evenodd" clip-rule="evenodd" d="M47.5 17C62.1355 17 73.9999 28.8645 73.9999 43.5C73.9999 58.1354 62.1355 70 47.5 70C32.8644 70 21 58.1354 21 43.5C21 28.8645 32.8644 17 47.5 17Z" fill="#B12839"/>
<path fill-rule="evenodd" clip-rule="evenodd" d="M47.5 17C62.1355 17 73.9999 28.8645 73.9999 43.5C73.9999 58.1354 62.1355 70 47.5 70C32.8644 70 21 58.1354 21 43.5C21 28.8645 32.8644 17 47.5 17Z" fill="url(#paint0_linear_3616_317)"/>
</g>
<path fill-rule="evenodd" clip-rule="evenodd" d="M42.0001 1H52C68.5686 1 82 14.4312 82 31V41C82 57.5683 68.5686 70.9999 52 70.9999H42.0001C25.4316 70.9999 12 57.5683 12 41V31C12 14.4312 25.4316 1 42.0001 1Z" fill="#B12839"/>
<path fill-rule="evenodd" clip-rule="evenodd" d="M42.0001 1H52C68.5686 1 82 14.4312 82 31V41C82 57.5683 68.5686 70.9999 52 70.9999H42.0001C25.4316 70.9999 12 57.5683 12 41V31C12 14.4312 25.4316 1 42.0001 1Z" fill="url(#paint1_linear_3616_317)"/>
<path d="M36.6556 30.3971C39.2732 30.3971 41.3952 28.2752 41.3952 25.6576C41.3952 23.04 39.2732 20.918 36.6556 20.918C34.038 20.918 31.916 23.04 31.916 25.6576C31.916 28.2752 34.038 30.3971 36.6556 30.3971Z" fill="#FEFAFC"/>
<path d="M36.291 50.082C38.7073 50.082 40.666 48.1233 40.666 45.707C40.666 43.2908 38.7073 41.332 36.291 41.332C33.8748 41.332 31.916 43.2908 31.916 45.707C31.916 48.1233 33.8748 50.082 36.291 50.082Z" fill="#FEFAFC"/>
<path d="M56.709 50.082C59.1252 50.082 61.084 48.1233 61.084 45.707C61.084 43.2908 59.1252 41.332 56.709 41.332C54.2927 41.332 52.334 43.2908 52.334 45.707C52.334 48.1233 54.2927 50.082 56.709 50.082Z" fill="#FEFAFC"/>
<path d="M56.9556 41.3029C55.541 37.2487 51.7202 34.5216 47.4181 34.5216C47.4035 34.5216 47.3889 34.5216 47.3743 34.5216L42.2264 34.5362C40.0098 34.5654 38.0264 33.0633 37.4285 30.9049V28.2216C37.4285 27.6091 36.9327 27.1133 36.3056 27.1133C35.6785 27.1133 35.1973 27.6091 35.1973 28.2216V44.5841C35.1973 45.1966 35.6931 45.6924 36.3056 45.6924C36.9181 45.6924 37.4285 45.1966 37.4285 44.5841V34.9299C38.7118 36.0674 40.3889 36.7674 42.2118 36.7674C42.2264 36.7674 42.2264 36.7674 42.241 36.7674L47.3889 36.7529C47.4035 36.7529 47.4035 36.7529 47.4181 36.7529C50.7577 36.7529 53.7473 38.8674 54.841 42.032C55.016 42.4987 55.4389 42.7904 55.9056 42.7904C56.0223 42.7904 56.1535 42.7758 56.2702 42.732C56.8535 42.5279 57.1598 41.8862 56.9556 41.3029Z" fill="#FEFAFC"/>
<defs>
<filter id="filter0_d_3616_317" x="0" y="9" width="95" height="95" filterUnits="userSpaceOnUse" color-interpolation-filters="sRGB">
<feFlood flood-opacity="0" result="BackgroundImageFix"/>
<feColorMatrix in="SourceAlpha" type="matrix" values="0 0 0 0 0 0 0 0 0 0 0 0 0 0 0 0 0 0 127 0" result="hardAlpha"/>
<feOffset dy="13"/>
<feGaussianBlur stdDeviation="10.5"/>
<feColorMatrix type="matrix" values="0 0 0 0 0.741176 0 0 0 0 0.227451 0 0 0 0 0.290196 0 0 0 0.3 0"/>
<feBlend mode="normal" in2="BackgroundImageFix" result="effect1_dropShadow_3616_317"/>
<feBlend mode="normal" in="SourceGraphic" in2="effect1_dropShadow_3616_317" result="shape"/>
</filter>
<linearGradient id="paint0_linear_3616_317" x1="51.6351" y1="102.635" x2="106.635" y2="39.365" gradientUnits="userSpaceOnUse">
<stop stop-color="#B12839"/>
<stop offset="1" stop-color="#B12839"/>
</linearGradient>
<linearGradient id="paint1_linear_3616_317" x1="52.4133" y1="113.413" x2="124.413" y2="30.5869" gradientUnits="userSpaceOnUse">
<stop stop-color="#B12839"/>
<stop offset="1" stop-color="#E0717F"/>
</linearGradient>
</defs>
</svg>
