<svg width="95" height="104" viewBox="0 0 95 104" fill="none" xmlns="http://www.w3.org/2000/svg">
<g filter="url(#filter0_d_3616_324)">
<path fill-rule="evenodd" clip-rule="evenodd" d="M47.4999 17C62.1354 17 74 28.8645 74 43.5C74 58.1354 62.1354 70 47.4999 70C32.8644 70 21 58.1354 21 43.5C21 28.8645 32.8644 17 47.4999 17Z" fill="#FF4361"/>
</g>
<path fill-rule="evenodd" clip-rule="evenodd" d="M42 1H52.0001C68.5686 1 82.0001 14.4312 82.0001 31V41C82.0001 57.5683 68.5686 70.9999 52.0001 70.9999H42C25.4315 70.9999 12 57.5683 12 41V31C12 14.4312 25.4315 1 42 1Z" fill="#FF4361"/>
<path fill-rule="evenodd" clip-rule="evenodd" d="M42 1H52.0001C68.5686 1 82.0001 14.4312 82.0001 31V41C82.0001 57.5683 68.5686 70.9999 52.0001 70.9999H42C25.4315 70.9999 12 57.5683 12 41V31C12 14.4312 25.4315 1 42 1Z" fill="url(#paint0_linear_3616_324)"/>
<path d="M59.6104 32.1617C59.1146 31.9576 58.4583 31.8555 57.6417 31.8555H49.9417C47.4042 31.8555 46.5 32.7596 46.5 35.3263V46.6138C46.5 47.4596 46.6021 48.1159 46.8208 48.6263C47.2729 49.6763 48.2354 50.0846 49.9417 50.0846H57.6417C60.1792 50.0846 61.0833 49.1659 61.0833 46.6138V35.3263C61.0833 33.5909 60.675 32.6138 59.6104 32.1617ZM55.25 46.8034H52.3333C52.3042 46.8034 52.2604 46.8034 52.2313 46.7888C52.0125 46.7742 51.8229 46.7013 51.6625 46.5555C51.4 46.3659 51.2396 46.0596 51.2396 45.7096C51.2396 45.1117 51.7354 44.6159 52.3333 44.6159H55.25C55.8479 44.6159 56.3437 45.1117 56.3437 45.7096C56.3437 46.3076 55.8479 46.8034 55.25 46.8034Z" fill="#FEFAFC"/>
<path d="M59.6108 27.0284V28.2096C59.6108 29.0117 58.9546 29.668 58.1525 29.668H49.9421C46.2087 29.668 44.3129 31.5784 44.3129 35.3263V48.6263C44.3129 49.4284 43.6566 50.0846 42.8546 50.0846H40.0108C39.4275 50.0846 38.9608 49.618 38.9608 49.0492C38.9608 48.4659 39.4275 48.0138 40.0108 48.0138H42.8546V42.4284H37.7504C34.5129 42.268 31.9316 39.5992 31.9316 36.318V27.0284C31.9316 23.6596 34.6733 20.918 38.0566 20.918H53.5004C56.8691 20.918 59.6108 23.6596 59.6108 27.0284Z" fill="#FEFAFC"/>
<defs>
<filter id="filter0_d_3616_324" x="0" y="9" width="95" height="95" filterUnits="userSpaceOnUse" color-interpolation-filters="sRGB">
<feFlood flood-opacity="0" result="BackgroundImageFix"/>
<feColorMatrix in="SourceAlpha" type="matrix" values="0 0 0 0 0 0 0 0 0 0 0 0 0 0 0 0 0 0 127 0" result="hardAlpha"/>
<feOffset dy="13"/>
<feGaussianBlur stdDeviation="10.5"/>
<feColorMatrix type="matrix" values="0 0 0 0 0.745098 0 0 0 0 0.231373 0 0 0 0 0.294118 0 0 0 0.3 0"/>
<feBlend mode="normal" in2="BackgroundImageFix" result="effect1_dropShadow_3616_324"/>
<feBlend mode="normal" in="SourceGraphic" in2="effect1_dropShadow_3616_324" result="shape"/>
</filter>
<linearGradient id="paint0_linear_3616_324" x1="52.4133" y1="113.413" x2="124.413" y2="30.5869" gradientUnits="userSpaceOnUse">
<stop stop-color="#BB3748"/>
<stop offset="1" stop-color="#E97D8B"/>
</linearGradient>
</defs>
</svg>
