<svg width="57" height="57" viewBox="0 0 57 57" fill="none" xmlns="http://www.w3.org/2000/svg">
<path fill-rule="evenodd" clip-rule="evenodd" d="M24.7499 1H32.6666C45.7833 1 56.4166 11.633 56.4166 24.75V32.6667C56.4166 45.7832 45.7833 56.4166 32.6666 56.4166H24.7499C11.6332 56.4166 1 45.7832 1 32.6667V24.75C1 11.633 11.6332 1 24.7499 1Z" fill="url(#paint0_linear_3602_223)"/>
<path d="M32.8437 26.4766H24.1562C22.927 26.4766 22.5 25.6536 23.2187 24.6536L27.5625 18.5703C28.0729 17.8411 28.927 17.8411 29.4375 18.5703L33.7812 24.6536C34.5 25.6536 34.0729 26.4766 32.8437 26.4766Z" fill="#FEFAFC"/>
<path d="M34.3232 34.7474H22.6774C21.0316 34.7474 20.4691 33.6536 21.4378 32.3203L25.5941 26.4766H31.4066L35.5628 32.3203C36.5316 33.6536 35.9691 34.7474 34.3232 34.7474Z" fill="#FEFAFC"/>
<path d="M29.2832 34.7461V38.9128C29.2832 39.3398 28.929 39.694 28.502 39.694C28.0749 39.694 27.7207 39.3398 27.7207 38.9128V34.7461H29.2832Z" fill="#FEFAFC"/>
<defs>
<linearGradient id="paint0_linear_3602_223" x1="32.9938" y1="89.9939" x2="89.9938" y2="24.4229" gradientUnits="userSpaceOnUse">
<stop stop-color="#76B759"/>
<stop offset="1" stop-color="#7CCD77"/>
</linearGradient>
</defs>
</svg>
