<svg width="95" height="105" viewBox="0 0 95 105" fill="none" xmlns="http://www.w3.org/2000/svg">
<g filter="url(#filter0_d_3616_337)">
<path fill-rule="evenodd" clip-rule="evenodd" d="M47.5 18C62.1355 18 74 29.8645 74 44.5C74 59.1354 62.1355 71 47.5 71C32.8645 71 21 59.1354 21 44.5C21 29.8645 32.8645 18 47.5 18Z" fill="#FF4361"/>
<path fill-rule="evenodd" clip-rule="evenodd" d="M47.5 18C62.1355 18 74 29.8645 74 44.5C74 59.1354 62.1355 71 47.5 71C32.8645 71 21 59.1354 21 44.5C21 29.8645 32.8645 18 47.5 18Z" fill="url(#paint0_linear_3616_337)"/>
</g>
<path fill-rule="evenodd" clip-rule="evenodd" d="M43 1H53.0001C69.5686 1 83.0001 14.4312 83.0001 31V41C83.0001 57.5683 69.5686 70.9999 53.0001 70.9999H43C26.4315 70.9999 13 57.5683 13 41V31C13 14.4312 26.4315 1 43 1Z" fill="#FF4361"/>
<path fill-rule="evenodd" clip-rule="evenodd" d="M43 1H53.0001C69.5686 1 83.0001 14.4312 83.0001 31V41C83.0001 57.5683 69.5686 70.9999 53.0001 70.9999H43C26.4315 70.9999 13 57.5683 13 41V31C13 14.4312 26.4315 1 43 1Z" fill="url(#paint1_linear_3616_337)"/>
<path d="M56.25 20.918H38.75C36.3292 20.918 34.375 22.8576 34.375 25.2492V41.1596C34.375 43.5513 36.3292 45.4909 38.75 45.4909H39.8583C41.025 45.4909 42.1333 45.943 42.95 46.7596L45.4438 49.2242C46.5813 50.3471 48.4333 50.3471 49.5708 49.2242L52.0646 46.7596C52.8813 45.943 54.0042 45.4909 55.1563 45.4909H56.25C58.6708 45.4909 60.625 43.5513 60.625 41.1596V25.2492C60.625 22.8576 58.6708 20.918 56.25 20.918ZM47.9083 39.818C47.6896 39.8909 47.325 39.8909 47.0917 39.818C45.1958 39.1617 40.9375 36.4638 40.9375 31.8701C40.9521 29.843 42.5708 28.2096 44.5833 28.2096C45.7792 28.2096 46.8292 28.7784 47.5 29.668C48.1708 28.7784 49.2208 28.2096 50.4167 28.2096C52.4292 28.2096 54.0625 29.843 54.0625 31.8701C54.0479 36.4638 49.8042 39.1617 47.9083 39.818Z" fill="#FEFAFC"/>
<defs>
<filter id="filter0_d_3616_337" x="0" y="10" width="95" height="95" filterUnits="userSpaceOnUse" color-interpolation-filters="sRGB">
<feFlood flood-opacity="0" result="BackgroundImageFix"/>
<feColorMatrix in="SourceAlpha" type="matrix" values="0 0 0 0 0 0 0 0 0 0 0 0 0 0 0 0 0 0 127 0" result="hardAlpha"/>
<feOffset dy="13"/>
<feGaussianBlur stdDeviation="10.5"/>
<feColorMatrix type="matrix" values="0 0 0 0 0.92549 0 0 0 0 0.670588 0 0 0 0 0.32549 0 0 0 0.3 0"/>
<feBlend mode="normal" in2="BackgroundImageFix" result="effect1_dropShadow_3616_337"/>
<feBlend mode="normal" in="SourceGraphic" in2="effect1_dropShadow_3616_337" result="shape"/>
</filter>
<linearGradient id="paint0_linear_3616_337" x1="51.6352" y1="103.635" x2="106.635" y2="40.365" gradientUnits="userSpaceOnUse">
<stop stop-color="#F80759"/>
<stop offset="1" stop-color="#BC4E9C"/>
</linearGradient>
<linearGradient id="paint1_linear_3616_337" x1="53.4133" y1="113.413" x2="125.413" y2="30.5869" gradientUnits="userSpaceOnUse">
<stop stop-color="#ECAA51"/>
<stop offset="1" stop-color="#FACA88"/>
</linearGradient>
</defs>
</svg>
