<svg width="488" height="458" viewBox="0 0 488 458" fill="none" xmlns="http://www.w3.org/2000/svg">
<path fill-rule="evenodd" clip-rule="evenodd" d="M398.455 109.202C365.036 29.3926 264.953 8.08594 177.465 64.1986C78.4476 127.705 67.4369 242.804 98.1662 316.189C119.091 366.159 215.906 255.297 285.96 217.7C355.978 174.518 435.513 197.699 398.455 109.202Z" fill="#E79F3E"/>
<path fill-rule="evenodd" clip-rule="evenodd" d="M457.457 195.198C481.582 299.594 441.336 405.821 306.964 431.202C188.163 453.122 114.057 388.271 99.8964 289.908C148.988 194.681 208.892 272.898 302.454 239.201C389.101 224.633 420.092 137.895 457.457 195.198Z" fill="#B12839"/>
<path fill-rule="evenodd" clip-rule="evenodd" d="M75.6417 199.324C88.0248 195.141 98.3463 193.32 108.14 209.324C124.4 235.894 111.453 236.699 150.64 302.312C158.62 315.673 241.319 340.029 182.64 371.324C107.981 411.143 50.64 368.322 24.1376 302.312C8.48612 263.329 29.9104 214.772 75.6417 199.324Z" fill="#245B47"/>
</svg>
