
<svg width="140" height="" viewBox="0 0 242 30" fill="none" xmlns="http://www.w3.org/2000/svg">
<path d="M22.62 23.9L5.88 8.78L7.17 9.5L7.26 23H2.85V0.0499986H3.03L19.41 15.11L18.45 14.69L18.36 0.919998H22.74V23.9H22.62ZM28.2762 11.99C28.2762 10.47 28.5662 9.03 29.1462 7.67C29.7262 6.31 30.5262 5.11 31.5462 4.07C32.5862 3.01 33.7862 2.18 35.1462 1.58C36.5062 0.979999 37.9662 0.679999 39.5262 0.679999C41.0662 0.679999 42.5162 0.979999 43.8762 1.58C45.2362 2.18 46.4362 3.01 47.4762 4.07C48.5362 5.11 49.3562 6.31 49.9362 7.67C50.5362 9.03 50.8362 10.47 50.8362 11.99C50.8362 13.55 50.5362 15.01 49.9362 16.37C49.3562 17.73 48.5362 18.93 47.4762 19.97C46.4362 20.99 45.2362 21.79 43.8762 22.37C42.5162 22.95 41.0662 23.24 39.5262 23.24C37.9662 23.24 36.5062 22.95 35.1462 22.37C33.7862 21.79 32.5862 20.99 31.5462 19.97C30.5262 18.93 29.7262 17.73 29.1462 16.37C28.5662 15.01 28.2762 13.55 28.2762 11.99ZM32.7762 11.99C32.7762 12.97 32.9462 13.89 33.2862 14.75C33.6462 15.59 34.1362 16.34 34.7562 17C35.3962 17.64 36.1262 18.14 36.9462 18.5C37.7862 18.86 38.6962 19.04 39.6762 19.04C40.6162 19.04 41.4862 18.86 42.2862 18.5C43.1062 18.14 43.8162 17.64 44.4162 17C45.0162 16.34 45.4862 15.59 45.8262 14.75C46.1662 13.89 46.3362 12.97 46.3362 11.99C46.3362 10.99 46.1562 10.06 45.7962 9.2C45.4562 8.34 44.9762 7.59 44.3562 6.95C43.7562 6.29 43.0462 5.78 42.2262 5.42C41.4062 5.06 40.5162 4.88 39.5562 4.88C38.5962 4.88 37.7062 5.06 36.8862 5.42C36.0662 5.78 35.3462 6.29 34.7262 6.95C34.1062 7.59 33.6262 8.34 33.2862 9.2C32.9462 10.06 32.7762 10.99 32.7762 11.99ZM56.373 23V0.019999H56.403L68.673 17.42L66.813 17L79.053 0.019999H79.113V23H74.763V9.83L75.033 12.08L67.563 22.7H67.503L59.823 12.08L60.573 10.01V23H56.373ZM83.5303 23L93.4903 0.0499986H93.7303L103.69 23H98.6503L92.2903 6.86L95.4403 4.7L87.8203 23H83.5303ZM90.3403 15.02H96.9703L98.5003 18.68H88.9903L90.3403 15.02ZM108.109 23V0.919998H114.709C116.929 0.919998 118.819 1.25 120.379 1.91C121.939 2.57 123.189 3.45 124.129 4.55C125.089 5.65 125.789 6.88 126.229 8.24C126.669 9.6 126.889 10.97 126.889 12.35C126.889 13.99 126.589 15.47 125.989 16.79C125.409 18.09 124.609 19.21 123.589 20.15C122.569 21.07 121.389 21.78 120.049 22.28C118.709 22.76 117.289 23 115.789 23H108.109ZM112.459 18.8H115.039C116.139 18.8 117.139 18.66 118.039 18.38C118.939 18.08 119.709 17.65 120.349 17.09C121.009 16.53 121.509 15.83 121.849 14.99C122.209 14.13 122.389 13.15 122.389 12.05C122.389 10.61 122.149 9.44 121.669 8.54C121.209 7.62 120.629 6.91 119.929 6.41C119.249 5.91 118.549 5.57 117.829 5.39C117.109 5.19 116.499 5.09 115.999 5.09H112.459V18.8ZM144.244 6.26C143.404 5.8 142.544 5.42 141.664 5.12C140.804 4.82 139.994 4.67 139.234 4.67C138.294 4.67 137.554 4.86 137.014 5.24C136.474 5.62 136.204 6.19 136.204 6.95C136.204 7.47 136.404 7.94 136.804 8.36C137.224 8.76 137.754 9.12 138.394 9.44C139.054 9.76 139.734 10.05 140.434 10.31C141.074 10.55 141.704 10.84 142.324 11.18C142.964 11.5 143.534 11.91 144.034 12.41C144.534 12.89 144.934 13.5 145.234 14.24C145.534 14.96 145.684 15.85 145.684 16.91C145.684 18.03 145.394 19.07 144.814 20.03C144.234 20.99 143.384 21.77 142.264 22.37C141.144 22.95 139.764 23.24 138.124 23.24C137.284 23.24 136.424 23.16 135.544 23C134.684 22.82 133.834 22.56 132.994 22.22C132.154 21.86 131.344 21.41 130.564 20.87L132.484 17.48C133.004 17.86 133.564 18.2 134.164 18.5C134.784 18.78 135.404 19 136.024 19.16C136.644 19.32 137.214 19.4 137.734 19.4C138.254 19.4 138.774 19.33 139.294 19.19C139.834 19.03 140.274 18.77 140.614 18.41C140.974 18.05 141.154 17.55 141.154 16.91C141.154 16.47 141.004 16.07 140.704 15.71C140.424 15.35 140.034 15.02 139.534 14.72C139.054 14.42 138.524 14.16 137.944 13.94C137.264 13.68 136.564 13.38 135.844 13.04C135.124 12.7 134.444 12.29 133.804 11.81C133.184 11.31 132.674 10.7 132.274 9.98C131.894 9.24 131.704 8.34 131.704 7.28C131.704 6 131.984 4.89 132.544 3.95C133.124 3.01 133.934 2.27 134.974 1.73C136.014 1.17 137.214 0.859999 138.574 0.8C140.354 0.8 141.794 1.01 142.894 1.43C144.014 1.85 145.014 2.35 145.894 2.93L144.244 6.26ZM167.704 21.17C167.464 21.37 167.014 21.64 166.354 21.98C165.714 22.32 164.924 22.62 163.984 22.88C163.044 23.14 162.004 23.26 160.864 23.24C159.124 23.2 157.564 22.89 156.184 22.31C154.824 21.71 153.664 20.9 152.704 19.88C151.764 18.86 151.044 17.69 150.544 16.37C150.044 15.05 149.794 13.64 149.794 12.14C149.794 10.46 150.044 8.92 150.544 7.52C151.064 6.12 151.794 4.91 152.734 3.89C153.694 2.87 154.834 2.08 156.154 1.52C157.474 0.959999 158.934 0.679999 160.534 0.679999C162.014 0.679999 163.324 0.879999 164.464 1.28C165.604 1.68 166.534 2.11 167.254 2.57L165.544 6.68C165.044 6.3 164.374 5.91 163.534 5.51C162.714 5.09 161.764 4.88 160.684 4.88C159.844 4.88 159.034 5.06 158.254 5.42C157.494 5.76 156.814 6.25 156.214 6.89C155.634 7.53 155.174 8.28 154.834 9.14C154.494 9.98 154.324 10.9 154.324 11.9C154.324 12.96 154.474 13.93 154.774 14.81C155.094 15.69 155.544 16.45 156.124 17.09C156.704 17.71 157.394 18.19 158.194 18.53C159.014 18.87 159.934 19.04 160.954 19.04C162.134 19.04 163.144 18.85 163.984 18.47C164.824 18.09 165.464 17.69 165.904 17.27L167.704 21.17ZM171.912 11.99C171.912 10.47 172.202 9.03 172.782 7.67C173.362 6.31 174.162 5.11 175.182 4.07C176.222 3.01 177.422 2.18 178.782 1.58C180.142 0.979999 181.602 0.679999 183.162 0.679999C184.702 0.679999 186.152 0.979999 187.512 1.58C188.872 2.18 190.072 3.01 191.112 4.07C192.172 5.11 192.992 6.31 193.572 7.67C194.172 9.03 194.472 10.47 194.472 11.99C194.472 13.55 194.172 15.01 193.572 16.37C192.992 17.73 192.172 18.93 191.112 19.97C190.072 20.99 188.872 21.79 187.512 22.37C186.152 22.95 184.702 23.24 183.162 23.24C181.602 23.24 180.142 22.95 178.782 22.37C177.422 21.79 176.222 20.99 175.182 19.97C174.162 18.93 173.362 17.73 172.782 16.37C172.202 15.01 171.912 13.55 171.912 11.99ZM176.412 11.99C176.412 12.97 176.582 13.89 176.922 14.75C177.282 15.59 177.772 16.34 178.392 17C179.032 17.64 179.762 18.14 180.582 18.5C181.422 18.86 182.332 19.04 183.312 19.04C184.252 19.04 185.122 18.86 185.922 18.5C186.742 18.14 187.452 17.64 188.052 17C188.652 16.34 189.122 15.59 189.462 14.75C189.802 13.89 189.972 12.97 189.972 11.99C189.972 10.99 189.792 10.06 189.432 9.2C189.092 8.34 188.612 7.59 187.992 6.95C187.392 6.29 186.682 5.78 185.862 5.42C185.042 5.06 184.152 4.88 183.192 4.88C182.232 4.88 181.342 5.06 180.522 5.42C179.702 5.78 178.982 6.29 178.362 6.95C177.742 7.59 177.262 8.34 176.922 9.2C176.582 10.06 176.412 10.99 176.412 11.99ZM200.009 23V0.919998H206.609C208.829 0.919998 210.719 1.25 212.279 1.91C213.839 2.57 215.089 3.45 216.029 4.55C216.989 5.65 217.689 6.88 218.129 8.24C218.569 9.6 218.789 10.97 218.789 12.35C218.789 13.99 218.489 15.47 217.889 16.79C217.309 18.09 216.509 19.21 215.489 20.15C214.469 21.07 213.289 21.78 211.949 22.28C210.609 22.76 209.189 23 207.689 23H200.009ZM204.359 18.8H206.939C208.039 18.8 209.039 18.66 209.939 18.38C210.839 18.08 211.609 17.65 212.249 17.09C212.909 16.53 213.409 15.83 213.749 14.99C214.109 14.13 214.289 13.15 214.289 12.05C214.289 10.61 214.049 9.44 213.569 8.54C213.109 7.62 212.529 6.91 211.829 6.41C211.149 5.91 210.449 5.57 209.729 5.39C209.009 5.19 208.399 5.09 207.899 5.09H204.359V18.8ZM224.353 0.919998H239.413V5.12H228.703V9.83H238.183V14.03H228.703V18.8H239.833V23H224.353V0.919998Z" fill="#444444"/>
</svg>
