<svg width="917" height="1341" viewBox="0 0 917 1341" fill="#245B47" xmlns="http://www.w3.org/2000/svg">
<path d="M27.3333 1.69775C22 2.36442 11.2 4.49775 5.06667 6.23108L0 7.56433V664.098V1320.63L5.6 1322.23C26.8 1327.83 76.4 1335.03 116.667 1338.36C148.133 1340.9 227.467 1340.5 261.333 1337.56C413.2 1324.76 539.2 1281.83 634.533 1210.36C667.467 1185.7 728.267 1121.43 774.8 1062.1C819.333 1005.43 848.8 956.631 874.4 897.431C923.733 783.564 930.667 691.964 892.267 662.498C882.133 654.764 873.2 652.231 856.667 652.231C838.533 652.231 825.867 655.298 798.533 666.098C763.067 680.364 738.8 687.564 708.4 692.898C688.4 696.498 647.2 697.831 628.4 695.564C526.267 683.031 447.2 610.231 392.533 478.631C377.6 442.631 365.2 400.898 353.467 346.631C348.933 326.231 342.267 295.298 338.533 278.098C318.4 185.964 299.2 147.564 247.467 96.0978C193.2 42.0978 138.133 11.6977 78.2667 2.89771C65.7333 1.03104 37.8667 0.364421 27.3333 1.69775Z" />
</svg>
