
<svg width="865" height="1093" viewBox="0 0 865 1093" fill="#E79F3E" xmlns="http://www.w3.org/2000/svg">
<path fill-rule="evenodd" clip-rule="evenodd" d="M864.667 895.134V13.1333L848.4 10.2006C746.4 -8.46608 623.467 0.600586 518.667 34.6006C379.2 79.8006 260.4 166.601 159.867 297.001C72.1333 410.601 26.2667 505.668 8.6667 609.934C1.06667 655.534 0 671.801 0 745.001C0 784.334 0.66667 822.334 1.73333 837.668C10.1333 967.801 25.7333 1026.6 61.3333 1062.47C71.4667 1072.73 75.3333 1075.53 86 1080.73C106.933 1091.13 115.467 1092.73 146.667 1092.87C177.333 1092.87 191.2 1090.87 232 1080.73C268.933 1071.53 374.4 1035.8 499.333 990.068C586.133 958.334 607.333 951.534 671.867 934.334C749.067 913.801 820.133 899.134 857.067 895.801L864.667 895.134Z" />
</svg>
